# xmcd
#
# Track frame offsets:
#	150
#	13247
#	24394
#	37951
#	49602
#	60058
#	73850
#	85603
#	98202
#	108593
#	119744
#	133869
#	144305
#	155748
#	167653
#	178885
#	189184
#	200864
#	210624
#	221409
#	231532
#	243010
#	255035
#	265479
#	277018
#	287732
#	302994
#	312737
#	326896
#	337534
#
# Disc length: 4663 seconds
#
# Revision: 0
# Processed by: cddbd v1.5.2PL0 Copyright (c) Steve Scherf et al.
# Submitted via: audiograbber 1.83.01
#
DISCID=c012351e
DTITLE=Wanda Jackson - The Ballads Of Wanda Jackson (2007)
DYEAR=2007
DGENRE=Oldies
TTITLE0=The Tip Of My Fingers
TTITLE1=In The Middle Of A Heartache
TTITLE2=The Last Letter
TTITLE3=I May Never Get To Heaven
TTITLE4=I Need You Now
TTITLE5=We Could
TTITLE6=Sinful Heart
TTITLE7=Heartbreak Ahead
TTITLE8=Please Call Today
TTITLE9=Little Charm Bracelet
TTITLE10=Just Call Me Lonesome
TTITLE11=Making Believe
TTITLE12=I'd Rather Have You
TTITLE13=Right Or Wrong
TTITLE14=Just Queen For A Day
TTITLE15=Is It Wrong
TTITLE16=Don't Ask Me Why
TTITLE17=Let Me Talk To You
TTITLE18=I Can't Make My Dreams Underst
TTITLE19=A Date With Jerry
TTITLE20=Why I'm Walkin'
TTITLE21=I Cried Again
TTITLE22=Between The Windows And The Ph
TTITLE23=If I Cried Every Time You Hurt
TTITLE24=One Teardrop At A Time
TTITLE25=Little Things Mean A Lot
TTITLE26=Have You Ever Been Lonely
TTITLE27=Day Dreaming
TTITLE28=So Soon
TTITLE29=May You Never Be Alone
EXTD=
EXTT0=
EXTT1=
EXTT2=
EXTT3=
EXTT4=
EXTT5=
EXTT6=
EXTT7=
EXTT8=
EXTT9=
EXTT10=
EXTT11=
EXTT12=
EXTT13=
EXTT14=
EXTT15=
EXTT16=
EXTT17=
EXTT18=
EXTT19=
EXTT20=
EXTT21=
EXTT22=
EXTT23=
EXTT24=
EXTT25=
EXTT26=
EXTT27=
EXTT28=
EXTT29=
PLAYORDER=
